# xmcd
#
# Track frame offsets:
#	150
#	15101
#	27327
#	40515
#	52543
#	63643
#	77143
#	89707
#	104323
#	117554
#	130937
#	143627
#
# Disc length: 2089
#
# Revision: 1
# Processed by: cddbd v1.5.1PL0 Copyright (c) Steve Scherf et al.
# Submitted via: EasyCDDAExtractor 8.0.2.1
# Normalized: r0:DSETVAR1
#
DISCID=9308270c
DTITLE=Various Artist - Attention!
DYEAR=1900
DGENRE=Blues
TTITLE0=Stranger on the shore
TTITLE1=Unknown artist - It had to be you
TTITLE2=Unknown artist - Petite Fleyr
TTITLE3=Unknown artist - Ain't misbehavin'
TTITLE4=Unknown artist - Greensleeves
TTITLE5=Unknown artist - Only you
TTITLE6=Unknown artist - Sentimental Journey
TTITLE7=Unknown artist - I'm in the mood for love
TTITLE8=Unknown artist - La mer
TTITLE9=Unknown artist - Moon river
TTITLE10=Unknown artist - Shenandoah
TTITLE11=Unknown artist - I left my heart in San Francisco
EXTD=
EXTT0=
EXTT1=
EXTT2=
EXTT3=
EXTT4=
EXTT5=
EXTT6=
EXTT7=
EXTT8=
EXTT9=
EXTT10=
EXTT11=
PLAYORDER=
